<svg xmlns="http://www.w3.org/2000/svg" version="1.1" xmlns:xlink="http://www.w3.org/1999/xlink" xmlns:svgjs="http://svgjs.dev/svgjs" width="1920" height="960" preserveAspectRatio="none" viewBox="0 0 1920 960"><g mask="url(&quot;#SvgjsMask1129&quot;)" fill="none"><rect width="1920" height="960" x="0" y="0" fill="rgba(22, 33, 53, 1)"></rect><path d="M0,753.38C139.874,743.995,281.171,688.526,376.331,585.583C463.925,490.825,446.379,345.191,489.692,223.635C528.185,115.606,609.174,25.793,616.575,-88.65C624.987,-218.725,610.209,-356.978,534.081,-462.784C455.328,-572.239,326.779,-634.299,197.182,-671.542C68.082,-708.642,-70.349,-715.993,-197.627,-673.057C-322.246,-631.018,-433.572,-547.447,-502.575,-435.483C-566.771,-331.319,-561.704,-203.241,-562.58,-80.887C-563.353,27.106,-529.727,126.047,-507.35,231.699C-477.877,370.857,-509.42,536.385,-410.248,638.358C-309.184,742.276,-144.633,763.084,0,753.38" fill="#101827"></path><path d="M1920 1569.786C2031.18 1550.826 2112.553 1465.42 2216.134 1420.7939999999999 2346.637 1364.569 2546.433 1402.287 2607.068 1273.7730000000001 2667.446 1145.802 2511.43 1016.364 2470.9139999999998 880.79 2437.924 770.4 2446.777 652.607 2391.261 551.65 2326.1549999999997 433.25300000000004 2259.182 282.93899999999996 2126.932 255.25400000000002 1993.439 227.308 1891.634 379.351 1761.38 419.78999999999996 1634.125 459.298 1465.376 389.802 1375.8020000000001 488.45 1286.571 586.721 1368.1509999999998 746.6 1345.8220000000001 877.446 1322.624 1013.382 1201.4180000000001 1137.76 1242.5320000000002 1269.3890000000001 1283.769 1401.412 1424.526 1478.162 1550.967 1534.2269999999999 1666.276 1585.356 1795.659 1590.99 1920 1569.786" fill="#1c2a43"></path></g><defs><mask id="SvgjsMask1129"><rect width="1920" height="960" fill="#ffffff"></rect></mask></defs></svg>